<?xml version="1.0" encoding="utf-8"?>
<!-- Generator: Adobe Illustrator 28.3.0, SVG Export Plug-In . SVG Version: 6.00 Build 0)  -->
<svg version="1.1" id="Layer_1" xmlns="http://www.w3.org/2000/svg" xmlns:xlink="http://www.w3.org/1999/xlink" x="0px" y="0px"
	 viewBox="0 0 24 24" style="enable-background:new 0 0 24 24;" xml:space="preserve">
<style type="text/css">
	.st0{fill:#009898;}
</style>
<g>
	<path class="st0" d="M12,24c-6.7,0-12.1-5.5-12-12.3C0.1,5.3,5.5,0,12.2,0c6.6,0.1,12,5.6,11.8,12.3C23.8,18.8,18.5,24.1,12,24z
		 M1,12c0.1,6.3,5.1,11.1,11.1,11C18,23,22.9,18.2,22.9,12c0-6.3-5.1-11.1-11.1-11C6,1.1,1.1,5.9,1,12z"/>
</g>
<g>
	<path class="st0" d="M10.4,20.3V13H8v-2.5h2.5V8.4c0-1.6,0.1-2.2,0.5-2.8c0.4-0.6,0.9-1.1,1.4-1.4c0.5-0.2,1.1-0.4,2.1-0.5
		c0.4,0,1,0,1.6,0.1v2.4h-0.6c-1.1,0-1.6,0-1.9,0.2c-0.1,0.1-0.2,0.2-0.4,0.4c-0.2,0.2-0.2,0.5-0.2,1.6v2.1H16L15.4,13h-2.5v7.3
		H10.4z"/>
</g>
</svg>
