<?xml version="1.0" encoding="utf-8"?>
<!-- Generator: Adobe Illustrator 28.3.0, SVG Export Plug-In . SVG Version: 6.00 Build 0)  -->
<svg version="1.1" id="Layer_1" xmlns="http://www.w3.org/2000/svg" xmlns:xlink="http://www.w3.org/1999/xlink" x="0px" y="0px"
	 viewBox="0 0 24 24" style="enable-background:new 0 0 24 24;" xml:space="preserve">
<style type="text/css">
	.st0{fill:#009898;}
</style>
<g>
	<path class="st0" d="M12,24c-6.7,0-12.1-5.5-12-12.3C0.1,5.3,5.5,0,12.2,0c6.6,0.1,12,5.6,11.8,12.3C23.8,18.8,18.5,24.1,12,24z
		 M1,12c0.1,6.3,5.1,11.1,11.1,11C18,23,22.9,18.2,22.9,12c0-6.3-5.1-11.1-11.1-11C6,1.1,1.1,5.9,1,12z"/>
</g>
<path class="st0" d="M16.8,8.1c0,0.1,0,0.2-0.1,0.3c0,0.1-0.1,0.2-0.2,0.3c-0.1,0.1-0.2,0.1-0.3,0.2C16.1,8.9,16,9,15.9,9
	s-0.2,0-0.3-0.1c-0.1,0-0.2-0.1-0.3-0.2c-0.1-0.1-0.1-0.2-0.2-0.3C15,8.3,15,8.2,15,8.1c0-0.2,0.1-0.5,0.3-0.6
	c0.2-0.2,0.4-0.3,0.6-0.3s0.5,0.1,0.6,0.3C16.7,7.6,16.8,7.9,16.8,8.1z M19.5,12L19.5,12l0,3.2c0,1.1-0.5,2.2-1.3,3
	c-0.8,0.8-1.9,1.3-3,1.3l-3.2,0h0l-3.2,0c-1.1,0-2.2-0.5-3-1.3c-0.8-0.8-1.3-1.9-1.3-3l0-3.2v0l0-3.2c0-1.1,0.5-2.2,1.3-3
	c0.8-0.8,1.9-1.3,3-1.3l3.2,0h0l3.2,0c1.1,0,2.2,0.5,3,1.3c0.8,0.8,1.3,1.9,1.3,3L19.5,12z M18.1,12l0-3.1c0-0.8-0.3-1.5-0.9-2.1
	C16.7,6.3,15.9,6,15.1,6l-3.1,0L8.9,6C8.1,6,7.3,6.3,6.8,6.8C6.2,7.4,5.9,8.1,5.9,8.9l0,3.1l0,3.1c0,0.8,0.3,1.5,0.9,2.1
	c0.5,0.5,1.3,0.9,2.1,0.9l3.1,0l3.1,0c0.8,0,1.5-0.3,2.1-0.9c0.5-0.5,0.9-1.3,0.9-2.1L18.1,12z M15.9,12c0,1-0.4,2-1.1,2.7
	S13,15.9,12,15.9s-2-0.4-2.7-1.1S8.1,13,8.1,12s0.4-2,1.1-2.7C10,8.6,11,8.2,12,8.2s2,0.4,2.7,1.1C15.4,10,15.9,11,15.9,12z
	 M14.5,12c0-0.7-0.3-1.3-0.7-1.7c-0.5-0.5-1.1-0.7-1.7-0.7c-0.7,0-1.3,0.3-1.7,0.7c-0.5,0.5-0.7,1.1-0.7,1.7c0,0.7,0.3,1.3,0.7,1.7
	c0.5,0.5,1.1,0.7,1.7,0.7c0.7,0,1.3-0.3,1.7-0.7C14.2,13.3,14.5,12.7,14.5,12z"/>
</svg>
