<?xml version="1.0" encoding="utf-8"?>
<!-- Generator: Adobe Illustrator 28.3.0, SVG Export Plug-In . SVG Version: 6.00 Build 0)  -->
<svg version="1.1" id="Layer_1" xmlns="http://www.w3.org/2000/svg" xmlns:xlink="http://www.w3.org/1999/xlink" x="0px" y="0px"
	 viewBox="0 0 24 24" style="enable-background:new 0 0 24 24;" xml:space="preserve">
<style type="text/css">
	.st0{fill:#009898;}
</style>
<g>
	<path class="st0" d="M12,24c-6.7,0-12.1-5.5-12-12.3C0.1,5.3,5.5,0,12.2,0c6.6,0.1,12,5.6,11.8,12.3C23.8,18.8,18.5,24.1,12,24z
		 M1,12c0.1,6.3,5.1,11.1,11.1,11C18,23,22.9,18.2,22.9,12c0-6.3-5.1-11.1-11.1-11C6,1.1,1.1,5.9,1,12z"/>
</g>
<g>
	<path class="st0" d="M16.1,18.9c0-0.1,0-0.2,0-0.4c0-1.5,0-3.1,0-4.6c0-0.3,0-0.5-0.1-0.8c-0.2-0.9-0.9-1.3-1.9-1.2
		c-0.7,0.1-1.4,0.7-1.5,1.5c0,0.5,0,0.9,0,1.4c0,1.3,0,2.5,0,3.8c0,0.1,0,0.2,0,0.4c-0.9,0-1.9,0-2.8,0c0-3,0-6,0-9.1
		c0.9,0,1.8,0,2.8,0c0,0.4,0,0.7,0,1.1c0.1-0.1,0.2-0.2,0.2-0.2c1.3-1.9,4.7-1.7,5.7,0.5c0.3,0.6,0.4,1.3,0.5,1.9c0,1.9,0,3.7,0,5.6
		c0,0,0,0.1,0,0.1C17.9,18.9,17,18.9,16.1,18.9z"/>
	<path class="st0" d="M8,18.9c-0.9,0-1.8,0-2.8,0c0-3,0-6,0-9c0.9,0,1.8,0,2.8,0C8,12.8,8,15.8,8,18.9z"/>
	<path class="st0" d="M6.5,8C5.7,8,5.1,7.4,5.1,6.6c0-0.8,0.6-1.4,1.5-1.4C7.4,5.2,8,5.8,8,6.6C8,7.5,7.4,8,6.5,8z"/>
</g>
</svg>
