<?xml version="1.0" encoding="utf-8"?>
<!-- Generator: Adobe Illustrator 28.3.0, SVG Export Plug-In . SVG Version: 6.00 Build 0)  -->
<svg version="1.1" id="Layer_1" xmlns="http://www.w3.org/2000/svg" xmlns:xlink="http://www.w3.org/1999/xlink" x="0px" y="0px"
	 viewBox="0 0 24 24" style="enable-background:new 0 0 24 24;" xml:space="preserve">
<style type="text/css">
	.st0{fill:#009898;}
</style>
<path class="st0" d="M13.3,11l4.9-5.6H17l-4.3,4.9L9.3,5.4H5.4l5.2,7.4l-5.2,5.9h1.2l4.5-5.1l3.6,5.1h3.9L13.3,11z M11.7,12.8
	l-0.5-0.7L7,6.2h1.8l3.4,4.7l0.5,0.7l4.4,6.1h-1.8L11.7,12.8z"/>
<g>
	<path class="st0" d="M12,24c-6.7,0-12.1-5.5-12-12.3C0.1,5.3,5.5,0,12.2,0c6.6,0.1,12,5.6,11.8,12.3C23.8,18.8,18.5,24.1,12,24z
		 M1,12c0.1,6.3,5.1,11.1,11.1,11C18,23,22.9,18.2,22.9,12c0-6.3-5.1-11.1-11.1-11C6,1.1,1.1,5.9,1,12z"/>
</g>
</svg>
